<svg width="48" height="33" viewBox="0 0 48 33" fill="none" xmlns="http://www.w3.org/2000/svg">
<path d="M29.4639 3.64208C29.4639 1.63061 31.0945 0 33.1059 0C35.1174 0 36.748 1.63061 36.748 3.64208C36.748 5.65354 35.1174 7.28415 33.1059 7.28415C31.0945 7.28415 29.4639 5.65354 29.4639 3.64208Z" fill="#FFB800"/>
<path d="M39.7842 16.6528C40.7614 17.097 41.4591 17.6179 41.8779 18.2144C42.3095 18.8109 42.5254 19.5407 42.5254 20.4038C42.5254 21.2668 42.3221 22.0407 41.916 22.7261C41.5099 23.4114 40.9324 23.9508 40.1836 24.3442C39.4475 24.725 38.5974 24.9155 37.6328 24.9155C35.8307 24.9155 34.2378 24.5226 32.8545 23.7358L33.6533 20.0044H33.7676C34.0214 21.3242 34.555 22.3582 35.3672 23.1069C36.1921 23.843 37.1566 24.2114 38.2607 24.2114C38.9461 24.2114 39.4982 24.0335 39.917 23.6782C40.3358 23.3102 40.5459 22.8089 40.5459 22.1743C40.5459 21.7174 40.412 21.3305 40.1455 21.0132C39.8917 20.6832 39.4479 20.3783 38.8135 20.0991L36.0908 18.8618C35.516 18.6012 35.0244 18.2963 34.6162 17.9478C36.2465 17.4503 37.7588 16.9113 39.125 16.3433L39.7842 16.6528ZM8.87109 20.6626L8.3457 22.1938C8.2316 22.5489 8.17387 22.8532 8.17383 23.1069C8.17383 23.4623 8.26958 23.7418 8.45996 23.9448C8.66299 24.1478 8.94847 24.3062 9.31641 24.4204V24.5347H5.81348V24.4204C6.25764 24.2808 6.61337 24.0463 6.87988 23.7163C7.14636 23.3736 7.40637 22.8468 7.66016 22.1362L8.20898 20.5688C8.426 20.6018 8.6467 20.6335 8.87109 20.6626ZM18.0166 22.479C18.2324 23.0882 18.4483 23.5328 18.6641 23.812C18.8924 24.0911 19.2162 24.2935 19.6348 24.4204V24.5347H13.6377V24.4204C13.9802 24.3189 14.2344 24.1672 14.3994 23.9644C14.5771 23.7486 14.666 23.4691 14.666 23.1265C14.666 22.7839 14.5838 22.3713 14.4189 21.8892L14.1133 20.9888C15.1867 20.9951 16.3047 20.9697 17.458 20.9116L18.0166 22.479ZM31.1221 18.9038C31.6793 19.4506 31.958 20.154 31.958 21.0132C31.958 22.1554 31.5007 23.0309 30.5869 23.6401C29.6732 24.2366 28.347 24.5346 26.6084 24.5347H20.3252V24.4204C20.8072 24.2936 21.1435 24.1037 21.334 23.8501C21.5371 23.5836 21.6387 23.1263 21.6387 22.479V20.5718C22.6633 20.458 23.7065 20.3205 24.7617 20.1587V24.0591H25.9229C26.7097 24.059 27.3312 23.7923 27.7881 23.2593C28.245 22.7262 28.4736 21.9836 28.4736 21.0317C28.4736 20.4485 28.4038 19.9506 28.2637 19.5386C29.2409 19.342 30.1953 19.1299 31.1221 18.9038ZM16.29 17.6323C15.2326 17.597 14.238 17.5221 13.3213 17.4087C13.1745 17.3905 13.0293 17.3712 12.8867 17.3511L11.4492 13.1313L10.1924 16.7837C9.98691 16.7218 9.79009 16.6572 9.60254 16.5894L11.4873 11.2085H14L16.29 17.6323ZM26.6084 11.2085C28.144 11.2085 29.305 11.4753 30.0918 12.0083C30.8914 12.5287 31.291 13.3093 31.291 14.3501C31.2909 15.0279 31.1114 15.6128 30.751 16.104C29.6694 16.3536 28.5446 16.5799 27.3857 16.7798C27.7938 16.2817 27.998 15.5352 27.998 14.5405C27.998 13.6013 27.788 12.89 27.3691 12.4077C26.963 11.9256 26.3541 11.6841 25.542 11.6841H24.7617V17.1763C23.6975 17.3143 22.6533 17.4217 21.6387 17.4995V13.1499C21.6386 12.5536 21.537 12.1283 21.334 11.8745C21.1436 11.6209 20.8073 11.4369 20.3252 11.3228V11.2085H26.6084ZM38.0703 10.8276C38.8064 10.8276 39.5745 10.9293 40.374 11.1323C40.998 11.2809 41.5603 11.468 42.0605 11.6938C41.543 12.0609 40.9398 12.4274 40.2578 12.7886C40.1563 12.6731 40.0488 12.5656 39.9365 12.4653C39.2258 11.8307 38.3816 11.5132 37.4043 11.5132C36.6682 11.5132 36.1034 11.6783 35.71 12.0083C35.3294 12.3255 35.1388 12.7313 35.1387 13.2261C35.1387 13.683 35.2716 14.0709 35.5381 14.3882C35.6183 14.4799 35.7164 14.5709 35.8311 14.6626C35.0095 14.9453 34.1414 15.2156 33.2334 15.4702C33.209 15.2856 33.1973 15.0961 33.1973 14.9019C33.1973 14.1657 33.3683 13.4925 33.7109 12.8833C34.0663 12.2616 34.6058 11.7669 35.3291 11.3989C36.0652 11.0182 36.9789 10.8277 38.0703 10.8276Z" fill="#153D1C"/>
<path d="M26.8677 16.7643C37.2859 15.0369 45.1072 11.1137 44.3369 8.00167C43.9942 6.61737 42.0094 5.62673 38.9942 5.10547C43.2189 5.67337 46.0407 6.92918 46.4922 8.75319C47.4187 12.4966 38.0109 17.2156 25.4792 19.2935C12.9474 21.3713 2.03737 20.0211 1.11082 16.2777C0.184272 12.5343 9.59212 7.81524 22.1238 5.73741C23.5983 5.49293 25.0504 5.2959 26.4664 5.14466C25.6805 5.24451 24.8834 5.36099 24.0782 5.49449C13.6599 7.2219 5.83871 11.1451 6.609 14.2572C7.37928 17.3692 16.4494 18.4917 26.8677 16.7643Z" fill="#153D1C"/>
<path d="M1.44607 28.583L2.68352 31.2849H2.00236L1.21523 29.3133L1.44607 28.583ZM0.632457 31.0314C0.612274 31.0818 0.60849 31.1247 0.621104 31.16C0.633718 31.1954 0.655162 31.2231 0.685436 31.2433C0.71571 31.2609 0.745984 31.2698 0.776258 31.2698H0.810317V31.3076H0.000486195V31.2698C0.000486195 31.2698 0.00679328 31.2698 0.0194075 31.2698C0.0294988 31.2698 0.0345445 31.2698 0.0345445 31.2698C0.0925697 31.2698 0.151856 31.2521 0.212404 31.2168C0.275475 31.179 0.327193 31.1171 0.367559 31.0314H0.632457ZM1.44607 28.583L1.46121 29.0446L0.522713 31.2963H0.246463L1.22658 29.0787C1.23415 29.0636 1.24677 29.0358 1.26443 28.9954C1.28461 28.9525 1.30479 28.9046 1.32498 28.8516C1.34768 28.7987 1.36786 28.7482 1.38552 28.7003C1.40318 28.6498 1.41201 28.6107 1.41201 28.583H1.44607ZM1.84342 30.407V30.5659H0.730847V30.407H1.84342ZM1.90018 31.0314H2.56243C2.60531 31.1171 2.65703 31.179 2.71758 31.2168C2.77813 31.2521 2.83742 31.2698 2.89544 31.2698C2.89544 31.2698 2.90049 31.2698 2.91058 31.2698C2.92067 31.2698 2.92571 31.2698 2.92571 31.2698V31.3076H1.72232V31.2698H1.75638C1.80684 31.2698 1.85099 31.2496 1.88883 31.2092C1.92667 31.1663 1.93046 31.1071 1.90018 31.0314ZM3.74613 29.0371V31.3076H3.2012V29.0371H3.74613ZM4.62786 31.1562L4.71868 31.3076H3.73856V31.1562H4.62786ZM4.87762 30.6113L4.73004 31.3076H4.07536L4.19267 31.1562C4.30115 31.1562 4.39702 31.1348 4.48027 31.0919C4.56605 31.0465 4.63921 30.9834 4.69976 30.9027C4.76031 30.8194 4.80698 30.7223 4.83978 30.6113H4.87762ZM3.20877 31.0692L3.22769 31.3076H2.94765V31.2698C2.94765 31.2698 2.95522 31.2698 2.97036 31.2698C2.98549 31.2698 2.99432 31.2698 2.99685 31.2698C3.05235 31.2698 3.09902 31.2509 3.13686 31.213C3.17723 31.1726 3.19867 31.1247 3.2012 31.0692H3.20877ZM3.73856 29.2755V29.0371H3.99967V29.0749C3.99715 29.0749 3.98832 29.0749 3.97318 29.0749C3.96057 29.0749 3.95426 29.0749 3.95426 29.0749C3.89876 29.0749 3.85083 29.0938 3.81046 29.1317C3.7701 29.1695 3.74865 29.2174 3.74613 29.2755H3.73856ZM3.20877 29.2755H3.2012C3.19867 29.2174 3.17723 29.1695 3.13686 29.1317C3.0965 29.0938 3.04856 29.0749 2.99306 29.0749C2.99054 29.0749 2.98171 29.0749 2.96657 29.0749C2.95396 29.0749 2.94765 29.0749 2.94765 29.0749V29.0371H3.20877V29.2755ZM5.78608 29.0371V31.3076H5.24115V29.0371H5.78608ZM6.66781 31.1562L6.75863 31.3076H5.77851V31.1562H6.66781ZM6.91757 30.6113L6.76998 31.3076H6.11531L6.23262 31.1562C6.3411 31.1562 6.43697 31.1348 6.52022 31.0919C6.606 31.0465 6.67916 30.9834 6.73971 30.9027C6.80026 30.8194 6.84693 30.7223 6.87973 30.6113H6.91757ZM5.24871 31.0692L5.26764 31.3076H4.9876V31.2698C4.9876 31.2698 4.99517 31.2698 5.01031 31.2698C5.02544 31.2698 5.03427 31.2698 5.0368 31.2698C5.0923 31.2698 5.13897 31.2509 5.17681 31.213C5.21718 31.1726 5.23862 31.1247 5.24115 31.0692H5.24871ZM5.77851 29.2755V29.0371H6.03962V29.0749C6.0371 29.0749 6.02827 29.0749 6.01313 29.0749C6.00052 29.0749 5.99421 29.0749 5.99421 29.0749C5.93871 29.0749 5.89078 29.0938 5.85041 29.1317C5.81005 29.1695 5.7886 29.2174 5.78608 29.2755H5.77851ZM5.24871 29.2755H5.24115C5.23862 29.2174 5.21718 29.1695 5.17681 29.1317C5.13645 29.0938 5.08851 29.0749 5.03301 29.0749C5.03049 29.0749 5.02166 29.0749 5.00652 29.0749C4.99391 29.0749 4.9876 29.0749 4.9876 29.0749V29.0371H5.24871V29.2755ZM8.47982 28.6586H9.13449C9.31866 28.6586 9.48264 28.6813 9.62645 28.7268C9.77277 28.7696 9.88756 28.839 9.97081 28.9349C10.0541 29.0282 10.0957 29.1519 10.0957 29.3057C10.0957 29.4218 10.073 29.5202 10.0276 29.6009C9.98469 29.6816 9.92792 29.7435 9.85728 29.7863C9.78665 29.8292 9.71222 29.8557 9.63401 29.8658C9.76016 29.8759 9.87368 29.9112 9.9746 29.9718C10.078 30.0323 10.1588 30.1131 10.2168 30.214C10.2748 30.3149 10.3038 30.4335 10.3038 30.5697C10.3038 30.7311 10.2597 30.8674 10.1714 30.9784C10.0831 31.0869 9.9582 31.1689 9.79674 31.2244C9.6378 31.2799 9.45237 31.3076 9.24045 31.3076H8.86581C8.86581 31.3076 8.86581 31.2937 8.86581 31.266C8.86833 31.2357 8.86959 31.2067 8.86959 31.179C8.86959 31.1512 8.86959 31.1373 8.86959 31.1373H9.07394C9.18747 31.1373 9.28712 31.1159 9.3729 31.073C9.4612 31.0301 9.52932 30.9633 9.57725 30.8724C9.62771 30.7816 9.65294 30.6656 9.65294 30.5243C9.65294 30.4133 9.63528 30.3187 9.59996 30.2405C9.56716 30.1622 9.52175 30.0992 9.46372 30.0512C9.40822 30.0008 9.34263 29.9642 9.26694 29.9415C9.19126 29.9188 9.11179 29.9074 9.02853 29.9074V29.8734C9.08656 29.8734 9.14332 29.8646 9.19882 29.8469C9.25433 29.8267 9.30352 29.7964 9.34641 29.7561C9.39182 29.7157 9.42714 29.6627 9.45237 29.5971C9.4776 29.529 9.49021 29.4483 9.49021 29.3549C9.49021 29.2263 9.47003 29.1228 9.42966 29.0446C9.39182 28.9664 9.33632 28.9097 9.26316 28.8743C9.18999 28.839 9.10548 28.8214 9.00961 28.8214H8.51766C8.51766 28.8188 8.51387 28.805 8.50631 28.7797C8.50126 28.752 8.49495 28.7255 8.48738 28.7003C8.48234 28.6725 8.47982 28.6586 8.47982 28.6586ZM8.89987 28.6586V31.3076H8.33223V28.6586H8.89987ZM8.34358 31.0314V31.3076H8.04084V31.2698C8.04589 31.2698 8.05472 31.2698 8.06733 31.2698C8.07995 31.2698 8.08752 31.2698 8.09004 31.2698C8.15563 31.2698 8.21113 31.2471 8.25655 31.2017C8.30448 31.1537 8.32971 31.097 8.33223 31.0314H8.34358ZM8.34358 28.9349H8.33223C8.32971 28.8693 8.30448 28.8138 8.25655 28.7684C8.21113 28.7204 8.15563 28.6965 8.09004 28.6965C8.08752 28.6965 8.07995 28.6965 8.06733 28.6965C8.05472 28.6965 8.04589 28.6965 8.04084 28.6965V28.6586H8.34358V28.9349ZM11.306 29.0371V30.4637C11.306 30.6958 11.359 30.8775 11.4649 31.0087C11.5734 31.1398 11.7235 31.2054 11.9153 31.2054C12.1146 31.2054 12.2685 31.1436 12.3769 31.02C12.488 30.8964 12.5447 30.7248 12.5472 30.5054V29.0371H12.797V30.4826C12.797 30.7526 12.7137 30.9658 12.5472 31.1222C12.3833 31.2786 12.1499 31.3568 11.8472 31.3568C11.4813 31.3568 11.2089 31.2799 11.0298 31.126C10.8506 30.9696 10.7611 30.7564 10.7611 30.4864V29.0371H11.306ZM10.7686 29.0371V29.2338H10.7611C10.7585 29.1859 10.7409 29.1468 10.7081 29.1165C10.6753 29.0863 10.6349 29.0711 10.587 29.0711C10.587 29.0711 10.5782 29.0711 10.5605 29.0711C10.5428 29.0711 10.534 29.0711 10.534 29.0711V29.0371H10.7686ZM11.5293 29.0371V29.0711C11.5293 29.0711 11.5204 29.0711 11.5028 29.0711C11.4851 29.0711 11.4763 29.0711 11.4763 29.0711C11.4284 29.0711 11.388 29.0863 11.3552 29.1165C11.3224 29.1468 11.306 29.1859 11.306 29.2338H11.2984V29.0371H11.5293ZM12.5548 29.0371V29.2338H12.5472C12.5447 29.1859 12.5271 29.1468 12.4943 29.1165C12.4615 29.0863 12.4224 29.0711 12.3769 29.0711C12.3769 29.0711 12.3681 29.0711 12.3505 29.0711C12.3328 29.0711 12.324 29.0711 12.324 29.0711V29.0371H12.5548ZM13.0203 29.0371V29.0711C13.0203 29.0711 13.0114 29.0711 12.9938 29.0711C12.9786 29.0711 12.9711 29.0711 12.9711 29.0711C12.9231 29.0711 12.8815 29.0863 12.8462 29.1165C12.8134 29.1468 12.797 29.1859 12.797 29.2338H12.7894V29.0371H13.0203ZM14.0007 28.9879C14.0511 28.9879 14.1117 28.9904 14.1823 28.9954C14.2555 29.0005 14.3274 29.0068 14.398 29.0144C14.4687 29.0194 14.5305 29.027 14.5835 29.0371C14.639 29.0446 14.6768 29.0522 14.697 29.0598L14.6478 29.5214H14.6137C14.6137 29.4054 14.5734 29.3133 14.4926 29.2452C14.4119 29.1771 14.2959 29.143 14.1445 29.143C14.0234 29.143 13.925 29.1695 13.8493 29.2225C13.7762 29.2755 13.7371 29.3461 13.732 29.4344C13.727 29.4798 13.7345 29.5214 13.7547 29.5593C13.7774 29.5946 13.8077 29.6261 13.8455 29.6539C13.8859 29.6816 13.9301 29.7094 13.978 29.7372L14.5721 30.1042C14.673 30.1547 14.7525 30.2278 14.8105 30.3237C14.8685 30.4196 14.8938 30.5356 14.8862 30.6719C14.8786 30.8131 14.837 30.9355 14.7613 31.0389C14.6882 31.1424 14.586 31.2218 14.4548 31.2773C14.3261 31.3303 14.1735 31.3568 13.9969 31.3568C13.8884 31.3568 13.7875 31.348 13.6942 31.3303C13.6008 31.3127 13.5201 31.2887 13.452 31.2584C13.3864 31.2281 13.3359 31.1941 13.3006 31.1562C13.2804 31.1058 13.2716 31.0452 13.2741 30.9746C13.2766 30.9014 13.288 30.8295 13.3082 30.7589C13.3284 30.6857 13.3536 30.6252 13.3839 30.5773H13.4141C13.4066 30.6908 13.4267 30.7955 13.4747 30.8913C13.5251 30.9872 13.5983 31.0642 13.6942 31.1222C13.79 31.1777 13.9048 31.2054 14.0385 31.2054C14.1849 31.2054 14.2946 31.1714 14.3678 31.1033C14.4409 31.0352 14.4775 30.9557 14.4775 30.8649C14.4775 30.7967 14.4548 30.7362 14.4094 30.6832C14.3665 30.6277 14.2946 30.5735 14.1937 30.5205L13.6563 30.1799C13.5302 30.1143 13.4381 30.0273 13.3801 29.9188C13.3246 29.8103 13.3044 29.6917 13.3195 29.5631C13.3321 29.442 13.3675 29.3385 13.4255 29.2528C13.486 29.167 13.5655 29.1014 13.6639 29.056C13.7623 29.0106 13.8745 28.9879 14.0007 28.9879ZM14.697 29.0219L14.6932 29.09H14.2883V29.0219H14.697ZM15.9639 29.0371V31.3076H15.419V29.0371H15.9639ZM15.4303 31.0692V31.3076H15.1541V31.2698C15.1541 31.2698 15.1617 31.2698 15.1768 31.2698C15.1919 31.2698 15.2008 31.2698 15.2033 31.2698C15.2613 31.2698 15.3118 31.2509 15.3547 31.213C15.3975 31.1726 15.419 31.1247 15.419 31.0692H15.4303ZM15.9564 31.0692H15.9639C15.9664 31.1247 15.9879 31.1726 16.0283 31.213C16.0711 31.2509 16.1229 31.2698 16.1834 31.2698C16.1834 31.2698 16.1897 31.2698 16.2023 31.2698C16.2175 31.2698 16.2263 31.2698 16.2288 31.2698V31.3076H15.9564V31.0692ZM15.9564 29.2755V29.0371H16.2288L16.225 29.0749C16.225 29.0749 16.2187 29.0749 16.2061 29.0749C16.1935 29.0749 16.1859 29.0749 16.1834 29.0749C16.1229 29.0749 16.0711 29.0938 16.0283 29.1317C15.9879 29.1695 15.9664 29.2174 15.9639 29.2755H15.9564ZM15.4303 29.2755H15.419C15.419 29.2174 15.3975 29.1695 15.3547 29.1317C15.3118 29.0938 15.26 29.0749 15.1995 29.0749C15.1995 29.0749 15.1919 29.0749 15.1768 29.0749C15.1617 29.0749 15.1541 29.0749 15.1541 29.0749V29.0371H15.4303V29.2755ZM16.7002 28.9841L18.9215 30.9368L18.9594 31.3568L16.7418 29.4041L16.7002 28.9841ZM16.7153 31.0768V31.3076H16.4353V31.2698C16.4353 31.2698 16.4454 31.2698 16.4656 31.2698C16.4857 31.2698 16.4958 31.2698 16.4958 31.2698C16.5539 31.2698 16.6031 31.2521 16.6434 31.2168C16.6838 31.179 16.704 31.1323 16.704 31.0768H16.7153ZM17.2224 31.0768C17.2249 31.1323 17.2464 31.179 17.2868 31.2168C17.3271 31.2521 17.375 31.2698 17.4306 31.2698C17.4306 31.2698 17.4406 31.2698 17.4608 31.2698C17.4835 31.2698 17.4949 31.2698 17.4949 31.2698V31.3076H17.2148V31.0768H17.2224ZM16.7002 28.9841L17.2224 29.5517V31.3076H16.704V29.4155C16.704 29.2868 16.6977 29.1834 16.6851 29.1052C16.6724 29.0245 16.6661 28.9841 16.6661 28.9841H16.7002ZM18.9556 29.0371V30.9141C18.9556 31.0024 18.9581 31.0806 18.9632 31.1487C18.9707 31.2143 18.9771 31.266 18.9821 31.3038C18.9897 31.3392 18.9934 31.3568 18.9934 31.3568H18.9594L18.4372 30.7551V29.0371H18.9556ZM18.9443 29.2679V29.0371H19.2281V29.0749C19.2281 29.0749 19.2167 29.0749 19.194 29.0749C19.1738 29.0749 19.1637 29.0749 19.1637 29.0749C19.1082 29.0749 19.059 29.0938 19.0162 29.1317C18.9758 29.167 18.9556 29.2124 18.9556 29.2679H18.9443ZM18.4372 29.2679C18.4346 29.2124 18.4132 29.167 18.3728 29.1317C18.335 29.0938 18.2871 29.0749 18.229 29.0749C18.229 29.0749 18.2177 29.0749 18.195 29.0749C18.1748 29.0749 18.1647 29.0749 18.1647 29.0749V29.0371H18.4447V29.2679H18.4372ZM20.232 29.0371V31.3076H19.6871V29.0371H20.232ZM21.1175 31.1562L21.2046 31.3076H20.2245V31.1562H21.1175ZM20.9889 30.108V30.2594H20.2245V30.108H20.9889ZM21.1592 29.0371V29.1884H20.2245V29.0371H21.1592ZM21.3597 30.6113L21.2159 31.3076H20.5613L20.6786 31.1562C20.787 31.1562 20.8829 31.1348 20.9662 31.0919C21.0519 31.0465 21.1251 30.9834 21.1857 30.9027C21.2462 30.8194 21.2929 30.7223 21.3257 30.6113H21.3597ZM20.9889 30.2518V30.5848H20.951V30.5546C20.951 30.4713 20.9245 30.4019 20.8716 30.3464C20.8211 30.2909 20.7517 30.2619 20.6634 30.2594V30.2518H20.9889ZM20.9889 29.7826V30.1156H20.6634V30.108C20.7517 30.1055 20.8211 30.0765 20.8716 30.021C20.9245 29.9629 20.951 29.8923 20.951 29.8091V29.7826H20.9889ZM21.1592 29.1809V29.582H21.1213V29.5479C21.1213 29.4369 21.0911 29.3499 21.0305 29.2868C20.9725 29.2238 20.888 29.191 20.777 29.1884V29.1809H21.1592ZM21.1592 28.9803V29.0711L20.7618 29.0371C20.835 29.0371 20.9119 29.0308 20.9927 29.0181C21.0734 29.003 21.1289 28.9904 21.1592 28.9803ZM19.6947 31.0692L19.7136 31.3076H19.4335V31.2698C19.4335 31.2698 19.4411 31.2698 19.4563 31.2698C19.4714 31.2698 19.4802 31.2698 19.4827 31.2698C19.5382 31.2698 19.5849 31.2509 19.6228 31.213C19.6631 31.1726 19.6846 31.1247 19.6871 31.0692H19.6947ZM19.6947 29.2755H19.6871C19.6846 29.2174 19.6631 29.1695 19.6228 29.1317C19.5849 29.0938 19.5382 29.0749 19.4827 29.0749C19.4802 29.0749 19.4714 29.0749 19.4563 29.0749C19.4411 29.0749 19.4335 29.0749 19.4335 29.0749V29.0371H19.7136L19.6947 29.2755ZM22.3416 28.9879C22.392 28.9879 22.4526 28.9904 22.5232 28.9954C22.5964 29.0005 22.6683 29.0068 22.7389 29.0144C22.8096 29.0194 22.8714 29.027 22.9243 29.0371C22.9798 29.0446 23.0177 29.0522 23.0379 29.0598L22.9887 29.5214H22.9546C22.9546 29.4054 22.9143 29.3133 22.8335 29.2452C22.7528 29.1771 22.6367 29.143 22.4854 29.143C22.3643 29.143 22.2659 29.1695 22.1902 29.2225C22.117 29.2755 22.0779 29.3461 22.0729 29.4344C22.0678 29.4798 22.0754 29.5214 22.0956 29.5593C22.1183 29.5946 22.1486 29.6261 22.1864 29.6539C22.2268 29.6816 22.2709 29.7094 22.3189 29.7372L22.913 30.1042C23.0139 30.1547 23.0934 30.2278 23.1514 30.3237C23.2094 30.4196 23.2347 30.5356 23.2271 30.6719C23.2195 30.8131 23.1779 30.9355 23.1022 31.0389C23.029 31.1424 22.9269 31.2218 22.7957 31.2773C22.667 31.3303 22.5144 31.3568 22.3378 31.3568C22.2293 31.3568 22.1284 31.348 22.035 31.3303C21.9417 31.3127 21.861 31.2887 21.7929 31.2584C21.7273 31.2281 21.6768 31.1941 21.6415 31.1562C21.6213 31.1058 21.6125 31.0452 21.615 30.9746C21.6175 30.9014 21.6289 30.8295 21.6491 30.7589C21.6692 30.6857 21.6945 30.6252 21.7247 30.5773H21.755C21.7474 30.6908 21.7676 30.7955 21.8156 30.8913C21.866 30.9872 21.9392 31.0642 22.035 31.1222C22.1309 31.1777 22.2457 31.2054 22.3794 31.2054C22.5257 31.2054 22.6355 31.1714 22.7086 31.1033C22.7818 31.0352 22.8184 30.9557 22.8184 30.8649C22.8184 30.7967 22.7957 30.7362 22.7503 30.6832C22.7074 30.6277 22.6355 30.5735 22.5346 30.5205L21.9972 30.1799C21.8711 30.1143 21.779 30.0273 21.721 29.9188C21.6654 29.8103 21.6453 29.6917 21.6604 29.5631C21.673 29.442 21.7083 29.3385 21.7664 29.2528C21.8269 29.167 21.9064 29.1014 22.0048 29.056C22.1032 29.0106 22.2154 28.9879 22.3416 28.9879ZM23.0379 29.0219L23.0341 29.09H22.6292V29.0219H23.0379ZM24.2891 28.9879C24.3396 28.9879 24.4001 28.9904 24.4708 28.9954C24.5439 29.0005 24.6158 29.0068 24.6865 29.0144C24.7571 29.0194 24.8189 29.027 24.8719 29.0371C24.9274 29.0446 24.9652 29.0522 24.9854 29.0598L24.9362 29.5214H24.9022C24.9022 29.4054 24.8618 29.3133 24.7811 29.2452C24.7004 29.1771 24.5843 29.143 24.4329 29.143C24.3118 29.143 24.2134 29.1695 24.1378 29.2225C24.0646 29.2755 24.0255 29.3461 24.0204 29.4344C24.0154 29.4798 24.023 29.5214 24.0432 29.5593C24.0659 29.5946 24.0961 29.6261 24.134 29.6539C24.1743 29.6816 24.2185 29.7094 24.2664 29.7372L24.8606 30.1042C24.9615 30.1547 25.0409 30.2278 25.099 30.3237C25.157 30.4196 25.1822 30.5356 25.1746 30.6719C25.1671 30.8131 25.1254 30.9355 25.0498 31.0389C24.9766 31.1424 24.8744 31.2218 24.7432 31.2773C24.6146 31.3303 24.4619 31.3568 24.2853 31.3568C24.1769 31.3568 24.0759 31.348 23.9826 31.3303C23.8893 31.3127 23.8085 31.2887 23.7404 31.2584C23.6748 31.2281 23.6244 31.1941 23.589 31.1562C23.5689 31.1058 23.56 31.0452 23.5626 30.9746C23.5651 30.9014 23.5764 30.8295 23.5966 30.7589C23.6168 30.6857 23.642 30.6252 23.6723 30.5773H23.7026C23.695 30.6908 23.7152 30.7955 23.7631 30.8913C23.8136 30.9872 23.8867 31.0642 23.9826 31.1222C24.0785 31.1777 24.1933 31.2054 24.327 31.2054C24.4733 31.2054 24.583 31.1714 24.6562 31.1033C24.7294 31.0352 24.7659 30.9557 24.7659 30.8649C24.7659 30.7967 24.7432 30.7362 24.6978 30.6832C24.6549 30.6277 24.583 30.5735 24.4821 30.5205L23.9448 30.1799C23.8186 30.1143 23.7265 30.0273 23.6685 29.9188C23.613 29.8103 23.5928 29.6917 23.608 29.5631C23.6206 29.442 23.6559 29.3385 23.7139 29.2528C23.7745 29.167 23.8539 29.1014 23.9523 29.056C24.0507 29.0106 24.163 28.9879 24.2891 28.9879ZM24.9854 29.0219L24.9816 29.09H24.5767V29.0219H24.9854ZM27.3303 28.6057C27.3808 28.6057 27.4426 28.6082 27.5158 28.6132C27.5915 28.6183 27.6684 28.6258 27.7466 28.6359C27.8273 28.6435 27.8967 28.6523 27.9547 28.6624C28.0153 28.67 28.0569 28.6788 28.0796 28.6889L28.0342 29.1998H27.9964C27.9964 29.0686 27.9472 28.9639 27.8488 28.8857C27.7529 28.805 27.6242 28.7646 27.4628 28.7646C27.3165 28.7646 27.1979 28.7999 27.1071 28.8706C27.0188 28.9412 26.9721 29.027 26.9671 29.1279C26.9645 29.2036 26.9885 29.2692 27.039 29.3247C27.0894 29.3802 27.1537 29.4319 27.2319 29.4798L27.9547 29.9491C28.0708 30.0147 28.1578 30.1004 28.2159 30.2064C28.2764 30.3124 28.3029 30.436 28.2953 30.5773C28.2827 30.8245 28.1881 31.0175 28.0115 31.1562C27.8349 31.2925 27.5952 31.3606 27.2925 31.3606C27.1815 31.3606 27.073 31.3505 26.9671 31.3303C26.8636 31.3127 26.7715 31.2874 26.6908 31.2546C26.6101 31.2193 26.5457 31.1777 26.4978 31.1298C26.4776 31.0743 26.4688 31.0074 26.4713 30.9292C26.4738 30.851 26.4852 30.7715 26.5054 30.6908C26.5281 30.6101 26.5558 30.5432 26.5886 30.4902H26.6227C26.6126 30.6189 26.6353 30.7387 26.6908 30.8497C26.7488 30.9582 26.8321 31.0452 26.9406 31.1108C27.0516 31.1739 27.1828 31.2042 27.3341 31.2017C27.5006 31.1991 27.6293 31.1575 27.7201 31.0768C27.8109 30.9935 27.8564 30.8939 27.8564 30.7778C27.8564 30.6996 27.8324 30.629 27.7844 30.5659C27.739 30.5028 27.6634 30.4423 27.5574 30.3843L26.8951 29.9453C26.7614 29.8696 26.6643 29.7725 26.6038 29.6539C26.5432 29.5353 26.5192 29.4067 26.5319 29.2679C26.5445 29.1367 26.5836 29.0219 26.6492 28.9235C26.7148 28.8226 26.8043 28.7444 26.9179 28.6889C27.0339 28.6334 27.1714 28.6057 27.3303 28.6057ZM28.0834 28.6435L28.0758 28.723H27.6293V28.6435H28.0834ZM29.9382 28.9879C30.14 28.9879 30.3229 29.0156 30.4869 29.0711C30.6509 29.1241 30.7921 29.2023 30.9107 29.3057C31.0293 29.4092 31.1201 29.5341 31.1832 29.6804C31.2488 29.8267 31.2816 29.992 31.2816 30.1761C31.2816 30.3578 31.2488 30.5218 31.1832 30.6681C31.1201 30.8119 31.0293 30.9355 30.9107 31.0389C30.7921 31.1424 30.6509 31.2218 30.4869 31.2773C30.3229 31.3303 30.14 31.3568 29.9382 31.3568C29.7389 31.3568 29.5572 31.3303 29.3932 31.2773C29.2292 31.2218 29.088 31.1424 28.9694 31.0389C28.8508 30.9355 28.76 30.8119 28.6969 30.6681C28.6339 30.5218 28.6023 30.3578 28.6023 30.1761C28.6023 29.992 28.6339 29.8267 28.6969 29.6804C28.76 29.5341 28.8508 29.4092 28.9694 29.3057C29.088 29.2023 29.2292 29.1241 29.3932 29.0711C29.5572 29.0156 29.7389 28.9879 29.9382 28.9879ZM29.9382 31.2092C30.0921 31.2092 30.2258 31.1676 30.3393 31.0843C30.4553 30.9986 30.5436 30.8787 30.6042 30.7248C30.6673 30.5709 30.6988 30.388 30.6988 30.1761C30.6988 29.9617 30.6673 29.7775 30.6042 29.6236C30.5436 29.4672 30.4553 29.3474 30.3393 29.2641C30.2258 29.1783 30.0921 29.1355 29.9382 29.1355C29.7868 29.1355 29.6543 29.1783 29.5408 29.2641C29.4273 29.3474 29.339 29.4672 29.2759 29.6236C29.2128 29.7775 29.1813 29.9617 29.1813 30.1761C29.1813 30.388 29.2128 30.5709 29.2759 30.7248C29.339 30.8787 29.4273 30.9986 29.5408 31.0843C29.6543 31.1676 29.7868 31.2092 29.9382 31.2092ZM32.2943 29.0371V31.3076H31.7494V29.0371H32.2943ZM33.1761 31.1562L33.2669 31.3076H32.2868V31.1562H33.1761ZM33.4258 30.6113L33.2782 31.3076H32.6236L32.7409 31.1562C32.8494 31.1562 32.9452 31.1348 33.0285 31.0919C33.1143 31.0465 33.1874 30.9834 33.248 30.9027C33.3085 30.8194 33.3552 30.7223 33.388 30.6113H33.4258ZM31.757 31.0692L31.7759 31.3076H31.4959V31.2698C31.4959 31.2698 31.5034 31.2698 31.5186 31.2698C31.5337 31.2698 31.5425 31.2698 31.5451 31.2698C31.6006 31.2698 31.6472 31.2509 31.6851 31.213C31.7254 31.1726 31.7469 31.1247 31.7494 31.0692H31.757ZM32.2868 29.2755V29.0371H32.5479V29.0749C32.5454 29.0749 32.5365 29.0749 32.5214 29.0749C32.5088 29.0749 32.5025 29.0749 32.5025 29.0749C32.447 29.0749 32.399 29.0938 32.3587 29.1317C32.3183 29.1695 32.2969 29.2174 32.2943 29.2755H32.2868ZM31.757 29.2755H31.7494C31.7469 29.2174 31.7254 29.1695 31.6851 29.1317C31.6447 29.0938 31.5968 29.0749 31.5413 29.0749C31.5387 29.0749 31.5299 29.0749 31.5148 29.0749C31.5022 29.0749 31.4959 29.0749 31.4959 29.0749V29.0371H31.757V29.2755ZM34.2776 29.0371V30.4637C34.2776 30.6958 34.3306 30.8775 34.4365 31.0087C34.545 31.1398 34.6951 31.2054 34.8869 31.2054C35.0862 31.2054 35.2401 31.1436 35.3486 31.02C35.4596 30.8964 35.5163 30.7248 35.5188 30.5054V29.0371H35.7686V30.4826C35.7686 30.7526 35.6854 30.9658 35.5188 31.1222C35.3549 31.2786 35.1215 31.3568 34.8188 31.3568C34.4529 31.3568 34.1805 31.2799 34.0014 31.126C33.8222 30.9696 33.7327 30.7564 33.7327 30.4864V29.0371H34.2776ZM33.7402 29.0371V29.2338H33.7327C33.7302 29.1859 33.7125 29.1468 33.6797 29.1165C33.6469 29.0863 33.6065 29.0711 33.5586 29.0711C33.5586 29.0711 33.5498 29.0711 33.5321 29.0711C33.5145 29.0711 33.5056 29.0711 33.5056 29.0711V29.0371H33.7402ZM34.5009 29.0371V29.0711C34.5009 29.0711 34.4921 29.0711 34.4744 29.0711C34.4567 29.0711 34.4479 29.0711 34.4479 29.0711C34.4 29.0711 34.3596 29.0863 34.3268 29.1165C34.294 29.1468 34.2776 29.1859 34.2776 29.2338H34.27V29.0371H34.5009ZM35.5264 29.0371V29.2338H35.5188C35.5163 29.1859 35.4987 29.1468 35.4659 29.1165C35.4331 29.0863 35.394 29.0711 35.3486 29.0711C35.3486 29.0711 35.3397 29.0711 35.3221 29.0711C35.3044 29.0711 35.2956 29.0711 35.2956 29.0711V29.0371H35.5264ZM35.9919 29.0371V29.0711C35.9919 29.0711 35.983 29.0711 35.9654 29.0711C35.9502 29.0711 35.9427 29.0711 35.9427 29.0711C35.8947 29.0711 35.8531 29.0863 35.8178 29.1165C35.785 29.1468 35.7686 29.1859 35.7686 29.2338H35.761V29.0371H35.9919ZM37.5016 29.0484V31.3076H36.9528V29.0484H37.5016ZM38.3265 29.0333V29.1847H36.1317V29.0333H38.3265ZM38.3265 29.1733V29.5744H38.2849V29.5404C38.2874 29.4319 38.2571 29.3461 38.1941 29.283C38.1335 29.22 38.049 29.1872 37.9405 29.1847V29.1733H38.3265ZM38.3265 28.9765V29.0711L37.9254 29.0333C37.9733 29.0333 38.025 29.0308 38.0805 29.0257C38.1361 29.0181 38.1865 29.0106 38.2319 29.003C38.2773 28.9929 38.3089 28.9841 38.3265 28.9765ZM36.9604 31.0692V31.3076H36.7069V31.2698C36.7069 31.2698 36.7132 31.2698 36.7258 31.2698C36.7409 31.2698 36.7485 31.2698 36.7485 31.2698C36.804 31.2698 36.8507 31.2509 36.8885 31.213C36.9289 31.1726 36.9503 31.1247 36.9528 31.0692H36.9604ZM37.4902 31.0692H37.5016C37.5016 31.1247 37.5217 31.1726 37.5621 31.213C37.6025 31.2509 37.6517 31.2698 37.7097 31.2698C37.7097 31.2698 37.716 31.2698 37.7286 31.2698C37.7437 31.2698 37.7513 31.2698 37.7513 31.2698V31.3076H37.4902V31.0692ZM36.5177 29.1733V29.1847C36.4066 29.1872 36.3209 29.22 36.2603 29.283C36.2023 29.3461 36.1733 29.4319 36.1733 29.5404V29.5744H36.1317V29.1733H36.5177ZM36.1317 28.9765C36.1544 28.9816 36.1872 28.9891 36.23 28.9992C36.2755 29.0093 36.3247 29.0181 36.3776 29.0257C36.4331 29.0308 36.4836 29.0333 36.529 29.0333L36.1317 29.0711V28.9765ZM39.3309 29.0371V31.3076H38.786V29.0371H39.3309ZM38.7974 31.0692V31.3076H38.5211V31.2698C38.5211 31.2698 38.5287 31.2698 38.5438 31.2698C38.559 31.2698 38.5678 31.2698 38.5703 31.2698C38.6283 31.2698 38.6788 31.2509 38.7217 31.213C38.7646 31.1726 38.786 31.1247 38.786 31.0692H38.7974ZM39.3234 31.0692H39.3309C39.3335 31.1247 39.3549 31.1726 39.3953 31.213C39.4382 31.2509 39.4899 31.2698 39.5504 31.2698C39.5504 31.2698 39.5567 31.2698 39.5694 31.2698C39.5845 31.2698 39.5933 31.2698 39.5958 31.2698V31.3076H39.3234V31.0692ZM39.3234 29.2755V29.0371H39.5958L39.5921 29.0749C39.5921 29.0749 39.5858 29.0749 39.5731 29.0749C39.5605 29.0749 39.553 29.0749 39.5504 29.0749C39.4899 29.0749 39.4382 29.0938 39.3953 29.1317C39.3549 29.1695 39.3335 29.2174 39.3309 29.2755H39.3234ZM38.7974 29.2755H38.786C38.786 29.2174 38.7646 29.1695 38.7217 29.1317C38.6788 29.0938 38.6271 29.0749 38.5665 29.0749C38.5665 29.0749 38.559 29.0749 38.5438 29.0749C38.5287 29.0749 38.5211 29.0749 38.5211 29.0749V29.0371H38.7974V29.2755ZM41.1579 28.9879C41.3597 28.9879 41.5426 29.0156 41.7066 29.0711C41.8706 29.1241 42.0119 29.2023 42.1304 29.3057C42.249 29.4092 42.3398 29.5341 42.4029 29.6804C42.4685 29.8267 42.5013 29.992 42.5013 30.1761C42.5013 30.3578 42.4685 30.5218 42.4029 30.6681C42.3398 30.8119 42.249 30.9355 42.1304 31.0389C42.0119 31.1424 41.8706 31.2218 41.7066 31.2773C41.5426 31.3303 41.3597 31.3568 41.1579 31.3568C40.9586 31.3568 40.7769 31.3303 40.613 31.2773C40.449 31.2218 40.3077 31.1424 40.1891 31.0389C40.0705 30.9355 39.9797 30.8119 39.9166 30.6681C39.8536 30.5218 39.822 30.3578 39.822 30.1761C39.822 29.992 39.8536 29.8267 39.9166 29.6804C39.9797 29.5341 40.0705 29.4092 40.1891 29.3057C40.3077 29.2023 40.449 29.1241 40.613 29.0711C40.7769 29.0156 40.9586 28.9879 41.1579 28.9879ZM41.1579 31.2092C41.3118 31.2092 41.4455 31.1676 41.559 31.0843C41.6751 30.9986 41.7634 30.8787 41.8239 30.7248C41.887 30.5709 41.9185 30.388 41.9185 30.1761C41.9185 29.9617 41.887 29.7775 41.8239 29.6236C41.7634 29.4672 41.6751 29.3474 41.559 29.2641C41.4455 29.1783 41.3118 29.1355 41.1579 29.1355C41.0065 29.1355 40.8741 29.1783 40.7605 29.2641C40.647 29.3474 40.5587 29.4672 40.4956 29.6236C40.4326 29.7775 40.401 29.9617 40.401 30.1761C40.401 30.388 40.4326 30.5709 40.4956 30.7248C40.5587 30.8787 40.647 30.9986 40.7605 31.0843C40.8741 31.1676 41.0065 31.2092 41.1579 31.2092ZM42.9387 28.9841L45.16 30.9368L45.1979 31.3568L42.9803 29.4041L42.9387 28.9841ZM42.9538 31.0768V31.3076H42.6738V31.2698C42.6738 31.2698 42.6839 31.2698 42.704 31.2698C42.7242 31.2698 42.7343 31.2698 42.7343 31.2698C42.7923 31.2698 42.8415 31.2521 42.8819 31.2168C42.9223 31.179 42.9425 31.1323 42.9425 31.0768H42.9538ZM43.4609 31.0768C43.4634 31.1323 43.4849 31.179 43.5252 31.2168C43.5656 31.2521 43.6135 31.2698 43.669 31.2698C43.669 31.2698 43.6791 31.2698 43.6993 31.2698C43.722 31.2698 43.7334 31.2698 43.7334 31.2698V31.3076H43.4533V31.0768H43.4609ZM42.9387 28.9841L43.4609 29.5517V31.3076H42.9425V29.4155C42.9425 29.2868 42.9361 29.1834 42.9235 29.1052C42.9109 29.0245 42.9046 28.9841 42.9046 28.9841H42.9387ZM45.1941 29.0371V30.9141C45.1941 31.0024 45.1966 31.0806 45.2017 31.1487C45.2092 31.2143 45.2155 31.266 45.2206 31.3038C45.2281 31.3392 45.2319 31.3568 45.2319 31.3568H45.1979L44.6756 30.7551V29.0371H45.1941ZM45.1827 29.2679V29.0371H45.4666V29.0749C45.4666 29.0749 45.4552 29.0749 45.4325 29.0749C45.4123 29.0749 45.4022 29.0749 45.4022 29.0749C45.3467 29.0749 45.2975 29.0938 45.2546 29.1317C45.2143 29.167 45.1941 29.2124 45.1941 29.2679H45.1827ZM44.6756 29.2679C44.6731 29.2124 44.6517 29.167 44.6113 29.1317C44.5735 29.0938 44.5255 29.0749 44.4675 29.0749C44.4675 29.0749 44.4562 29.0749 44.4335 29.0749C44.4133 29.0749 44.4032 29.0749 44.4032 29.0749V29.0371H44.6832V29.2679H44.6756ZM46.444 28.9879C46.4945 28.9879 46.555 28.9904 46.6257 28.9954C46.6988 29.0005 46.7707 29.0068 46.8414 29.0144C46.912 29.0194 46.9738 29.027 47.0268 29.0371C47.0823 29.0446 47.1201 29.0522 47.1403 29.0598L47.0911 29.5214H47.0571C47.0571 29.4054 47.0167 29.3133 46.936 29.2452C46.8552 29.1771 46.7392 29.143 46.5878 29.143C46.4667 29.143 46.3683 29.1695 46.2926 29.2225C46.2195 29.2755 46.1804 29.3461 46.1753 29.4344C46.1703 29.4798 46.1779 29.5214 46.198 29.5593C46.2207 29.5946 46.251 29.6261 46.2889 29.6539C46.3292 29.6816 46.3734 29.7094 46.4213 29.7372L47.0154 30.1042C47.1164 30.1547 47.1958 30.2278 47.2538 30.3237C47.3119 30.4196 47.3371 30.5356 47.3295 30.6719C47.322 30.8131 47.2803 30.9355 47.2047 31.0389C47.1315 31.1424 47.0293 31.2218 46.8981 31.2773C46.7695 31.3303 46.6168 31.3568 46.4402 31.3568C46.3318 31.3568 46.2308 31.348 46.1375 31.3303C46.0441 31.3127 45.9634 31.2887 45.8953 31.2584C45.8297 31.2281 45.7793 31.1941 45.7439 31.1562C45.7237 31.1058 45.7149 31.0452 45.7174 30.9746C45.72 30.9014 45.7313 30.8295 45.7515 30.7589C45.7717 30.6857 45.7969 30.6252 45.8272 30.5773H45.8575C45.8499 30.6908 45.8701 30.7955 45.918 30.8913C45.9685 30.9872 46.0416 31.0642 46.1375 31.1222C46.2334 31.1777 46.3482 31.2054 46.4819 31.2054C46.6282 31.2054 46.7379 31.1714 46.8111 31.1033C46.8843 31.0352 46.9208 30.9557 46.9208 30.8649C46.9208 30.7967 46.8981 30.7362 46.8527 30.6832C46.8098 30.6277 46.7379 30.5735 46.637 30.5205L46.0997 30.1799C45.9735 30.1143 45.8814 30.0273 45.8234 29.9188C45.7679 29.8103 45.7477 29.6917 45.7629 29.5631C45.7755 29.442 45.8108 29.3385 45.8688 29.2528C45.9294 29.167 46.0088 29.1014 46.1072 29.056C46.2056 29.0106 46.3179 28.9879 46.444 28.9879ZM47.1403 29.0219L47.1365 29.09H46.7316V29.0219H47.1403Z" fill="#153D1C"/>
</svg>
