<svg width="44" height="37" viewBox="0 0 44 37" fill="none" xmlns="http://www.w3.org/2000/svg">
<g clip-path="url(#clip0_2813_748)">
<path fill-rule="evenodd" clip-rule="evenodd" d="M20.6424 17.9152H26.1312L24.0009 19.4465V22.2013C24.0009 22.2013 27.5453 19.7399 28.2172 19.2503C28.2389 19.2345 28.2611 19.2183 28.2837 19.2019C28.958 18.711 29.9897 17.9601 31.0441 16.7327C32.1339 15.4643 32.5194 14.6725 32.5934 13.0338C32.6342 12.1462 32.6342 11.6268 32.5941 10.7393C32.4583 7.72008 30.7811 5.92505 27.7592 5.78637H20.6424L19.6464 5.83419L17.8785 5.85235L20.0096 4.34455V1.59277C17.6457 3.231 16.2397 4.21312 15.7916 4.53912C15.7698 4.55496 15.7477 4.57108 15.7251 4.5875C15.0504 5.07781 14.0184 5.8279 12.9635 7.05393C11.8732 8.32101 11.4875 9.11191 11.4136 10.7489C11.3727 11.6355 11.3727 12.1543 11.4129 13.0409C11.5487 16.0567 13.2266 17.7493 16.2497 17.8879H19.6464L20.6424 17.9152ZM20.6428 8.06543H27.7038C29.4737 8.06543 30.3486 9.06088 30.3486 11.8854C30.3486 14.7099 29.4561 15.6345 27.6639 15.6345H20.6428L19.6468 15.6214H16.306C14.5353 15.6214 13.6602 14.7158 13.6602 11.8944C13.6602 9.07301 14.553 8.11729 16.3459 8.11729L19.6468 8.09913L20.6428 8.06543Z" fill="#153D1C"/>
<path d="M17.0403 10.0967H27.227C28.1105 10.0967 28.5475 10.5625 28.5514 11.9694C28.5552 13.3763 28.1105 13.811 27.2372 13.811C26.364 13.811 17.9597 13.811 17.0424 13.811C16.1252 13.811 15.6973 13.4015 15.6973 11.982C15.6973 10.5625 16.1252 10.0967 17.0403 10.0967Z" fill="#153D1C"/>
</g>
<path fill-rule="evenodd" clip-rule="evenodd" d="M30.4794 24.8315C31.0754 24.8315 31.6442 24.813 32.0419 24.8315C33.3961 24.8946 34.1481 25.7016 34.2089 27.0718C34.2269 27.4744 34.2263 27.7101 34.208 28.1128C34.1748 28.8565 34.002 29.2158 33.5136 29.7915C33.0253 30.3671 32.5481 30.7119 32.247 30.9341C31.9482 31.1546 30.5012 32.1342 30.4794 32.1489V30.8989L31.3124 30.3755H30.4794V30.3735C29.8835 30.3735 29.3147 30.3923 28.9169 30.3735C27.5628 30.3097 26.8108 29.5315 26.7499 28.144C26.7319 27.7361 26.7326 27.4973 26.7509 27.0894C26.7841 26.3362 26.9569 25.9721 27.4453 25.3892C27.9302 24.8109 29.6205 24.8225 29.6464 24.8228H30.4794V24.8315ZM22.0751 24.8325C22.6732 24.8325 23.2444 24.8138 23.6435 24.8325C25.0024 24.8962 25.7563 25.7098 25.8173 27.0923V30.3833H24.8173C24.8173 30.3672 24.8076 27.851 24.8076 27.6167C24.8075 26.3237 24.414 25.8639 23.6181 25.8638H22.0751V25.8579H20.5029C19.6716 25.8579 19.2569 26.3208 19.2568 27.6206V30.3823H18.2158L18.2148 28.1489C18.1962 27.7404 18.1968 27.5008 18.2158 27.0923C18.2501 26.3383 18.4291 25.9739 18.9345 25.3901C19.436 24.8114 21.1832 24.8225 21.2128 24.8228H22.0751V24.8325ZM5.06928 24.313L4.20698 24.811H5.06538C5.63546 24.8089 6.1723 24.7947 6.55561 24.812C7.95716 24.8749 8.73465 25.7471 8.7978 27.1157C8.81644 27.5182 8.81676 27.7543 8.7978 28.1567C8.76349 28.8997 8.64038 29.4194 8.07905 29.8335C7.5177 30.2476 7.29409 30.271 6.57221 30.3677C6.38091 30.3931 5.42242 30.3765 5.06928 30.3696V30.3745C4.45243 30.3745 3.86376 30.3932 3.45209 30.3745C2.05033 30.3112 1.27195 29.5378 1.20893 28.1606C1.19029 27.7558 1.19095 27.5187 1.20991 27.1138C1.24422 26.3663 1.42315 26.0049 1.92866 25.4263C2.43397 24.8479 2.92759 24.5011 3.2392 24.2778C3.54893 24.0559 5.05078 23.0693 5.06928 23.0571V24.313ZM13.6044 24.8306C14.1731 24.8284 14.7083 24.8151 15.0908 24.8325C16.4924 24.896 17.2699 25.708 17.333 27.0884C17.3516 27.4941 17.3519 27.7316 17.333 28.1372C17.2987 28.8865 17.1756 29.411 16.6142 29.8286C16.0528 30.2462 15.8293 30.2702 15.1074 30.3677C14.916 30.3933 13.9576 30.3765 13.6044 30.3696V30.3735C12.9876 30.3735 12.3989 30.3923 11.9873 30.3735C10.5856 30.3098 9.80719 29.5315 9.74409 28.144C9.72545 27.7362 9.72612 27.4971 9.74506 27.0894C9.77936 26.3361 9.93702 25.9117 10.4638 25.3892C10.9906 24.8666 12.0068 24.8452 12.0068 24.8452L13.6044 24.8228V24.8306ZM39.0165 24.8325C39.6125 24.8325 40.1813 24.8138 40.579 24.8325C41.9331 24.896 42.6852 25.708 42.746 27.0884C42.764 27.4941 42.7634 27.7316 42.7451 28.1372C42.7119 28.8865 42.5931 29.411 42.0507 29.8286C41.5084 30.2462 41.2929 30.2702 40.5956 30.3677C40.3701 30.3992 39.0264 30.3679 39.0165 30.3677V30.3735C38.4206 30.3735 37.8518 30.3923 37.454 30.3735C36.1 30.3097 35.348 29.5315 35.2871 28.144C35.2691 27.7362 35.2697 27.4971 35.288 27.0894C35.3212 26.3361 35.4734 25.9117 35.9824 25.3892C36.4913 24.8666 37.4726 24.8452 37.4726 24.8452L39.0165 24.8228V24.8325ZM3.49702 25.8745C2.6657 25.8745 2.25095 26.3488 2.25092 27.6372C2.25092 28.9257 2.65741 29.3579 3.47846 29.3579H4.93842V29.356H6.51069C7.34203 29.356 7.75678 28.9169 7.75678 27.6362C7.75678 26.3555 7.3503 25.8755 6.52924 25.8755H4.93842V25.8745H3.49702ZM30.4794 25.856H28.9599C28.1568 25.856 27.7568 26.3187 27.7568 27.6167C27.7568 28.9148 28.1491 29.3511 28.9423 29.3511H30.4794V29.3521H31.999C32.802 29.352 33.2021 28.8739 33.2021 27.5923C33.2021 26.3104 32.8098 25.854 32.0165 25.854H30.4794V25.856ZM12.0322 25.856C11.2008 25.856 10.7861 26.3185 10.7861 27.6167C10.7861 28.9148 11.1926 29.3511 12.0136 29.3511H13.4736V29.3472H15.0458C15.8772 29.3472 16.2919 28.9043 16.2919 27.6128C16.2919 26.3213 15.8854 25.8618 15.0644 25.8618H13.4736V25.856H12.0322ZM37.497 25.856C36.6939 25.856 36.2939 26.3185 36.2939 27.6167C36.2939 28.9148 36.6863 29.3511 37.4794 29.3511H39.0165V29.3472H40.5361C41.3391 29.3471 41.7392 28.9042 41.7392 27.6128C41.7392 26.3213 41.3469 25.8618 40.5537 25.8618H39.0165V25.856H37.497Z" fill="#153D1C"/>
<defs>
<clipPath id="clip0_2813_748">
<rect width="21.4326" height="20.6672" fill="white" transform="translate(11.2598 1.59277)"/>
</clipPath>
</defs>
</svg>
