<svg width="12" height="12" viewBox="0 0 12 12" fill="none" xmlns="http://www.w3.org/2000/svg">
<path d="M2.88889 8C2.33298 8.31635 2 8.71925 2 9.1579C2 10.1752 3.79086 11 6 11C8.20915 11 10 10.1752 10 9.1579C10 8.71925 9.667 8.31635 9.1111 8" stroke="#153D1C" stroke-opacity="0.4" stroke-width="0.642857" stroke-linecap="round"/>
<path d="M6.49905 3.5H5.50095C4.06598 3.5 3.09851 5.03455 3.66377 6.414C3.74251 6.6062 3.92317 6.73075 4.12306 6.73075H4.47455C4.59302 6.73075 4.6963 6.8151 4.72503 6.9353L5.17755 8.82835C5.2719 9.2231 5.611 9.5 6 9.5C6.389 9.5 6.7281 9.2231 6.82245 8.82835L7.27495 6.9353C7.3037 6.8151 7.407 6.73075 7.52545 6.73075H7.87695C8.07685 6.73075 8.2575 6.6062 8.33625 6.414C8.9015 5.03455 7.934 3.5 6.49905 3.5Z" fill="#153D1C" fill-opacity="0.4" stroke="#153D1C" stroke-opacity="0.4" stroke-width="0.642857"/>
<path d="M7.25 2.25C7.25 2.94036 6.69035 3.5 6 3.5C5.30965 3.5 4.75 2.94036 4.75 2.25C4.75 1.55964 5.30965 1 6 1C6.69035 1 7.25 1.55964 7.25 2.25Z" fill="#153D1C" fill-opacity="0.4" stroke="#153D1C" stroke-opacity="0.4" stroke-width="0.642857"/>
</svg>
