<svg width="40" height="28" viewBox="0 0 40 28" fill="none" xmlns="http://www.w3.org/2000/svg">
<path d="M2.3579 16.0443L2.33872 16.0333L2.17571 16.6657L2.52091 16.8637L2.3579 16.0443Z" fill="#153D1C"/>
<path d="M6.17243 18.2321L6.1916 18.2431L6.35462 19.0626L6.00941 18.8646L6.17243 18.2321Z" fill="#153D1C"/>
<path d="M8.05811 20.5099C8.16519 20.5713 8.2435 20.5768 8.29304 20.5264C8.34258 20.476 8.36736 20.3756 8.36736 20.2253V19.8761C8.36736 19.7276 8.34258 19.5997 8.29304 19.4924C8.2435 19.3852 8.16519 19.3009 8.05811 19.2394L7.8975 19.1473V20.4178L8.05811 20.5099Z" fill="#153D1C"/>
<path fill-rule="evenodd" clip-rule="evenodd" d="M39.1048 11.3806C39.1087 11.3079 39.1098 11.2355 39.108 11.1636C39.1129 12.3009 38.3589 13.4391 36.8458 14.3069L25.015 21.0922C21.9988 22.8221 17.1085 22.822 14.0922 21.0922L2.26132 14.3069C0.799326 13.4684 0.0459694 12.3774 0.00124703 11.2787C0.00179592 11.3126 0.00298752 11.3466 0.00482613 11.3806L0.00172777 15.5349C-0.0411031 16.8133 0.712388 18.1027 2.26219 18.9915L14.0931 25.7768C17.1093 27.5067 21.9996 27.5067 25.0159 25.7768L36.8467 18.9915C38.3965 18.1027 39.15 16.8133 39.1072 15.5349L39.1048 11.3806ZM2.68153 17.7506L2.57605 17.2281L2.11818 16.9655L2.0151 17.3683L1.65072 17.1594L2.1038 15.4998L2.61201 15.7913L3.06509 17.9706L2.68153 17.7506ZM4.31311 18.7194C4.08937 18.5911 3.92316 18.4096 3.81448 18.1749C3.70741 17.9393 3.65387 17.6639 3.65387 17.3486C3.65387 17.0332 3.70741 16.8201 3.81448 16.7092C3.92316 16.5974 4.08937 16.6056 4.31311 16.734C4.39941 16.7834 4.47532 16.8407 4.54085 16.9058C4.60797 16.97 4.6655 17.0397 4.71345 17.1148C4.76139 17.19 4.80055 17.2702 4.83091 17.3554C4.86287 17.4416 4.88765 17.5319 4.90523 17.6263L4.56961 17.5273C4.56002 17.476 4.54884 17.4274 4.53605 17.3816C4.52327 17.3357 4.50649 17.2931 4.48571 17.2537C4.46653 17.2152 4.44176 17.1799 4.4114 17.1478C4.38263 17.1148 4.34747 17.0864 4.30592 17.0626C4.20843 17.0067 4.13891 17.0108 4.09736 17.0749C4.0574 17.1382 4.03743 17.2468 4.03743 17.4008V17.7363C4.03743 17.8903 4.0574 18.0228 4.09736 18.1337C4.13891 18.2437 4.20843 18.3266 4.30592 18.3825C4.38902 18.4302 4.44895 18.4352 4.48571 18.3977C4.52407 18.361 4.55203 18.3019 4.56961 18.2203L4.90523 18.5063C4.88765 18.5805 4.86287 18.6424 4.83091 18.6919C4.80055 18.7423 4.76139 18.7785 4.71345 18.8005C4.6655 18.8207 4.60797 18.8244 4.54085 18.8115C4.47532 18.7996 4.39941 18.7689 4.31311 18.7194ZM6.40975 19.427L6.51523 19.9495L6.89879 20.1695L6.44571 17.9901L5.9375 17.6986L5.48442 19.3582L5.8488 19.5672L5.95188 19.1644L6.40975 19.427ZM7.54271 18.6193L8.08209 18.9287C8.30742 19.0579 8.47443 19.2362 8.58311 19.4636C8.69178 19.6909 8.74612 19.9595 8.74612 20.2693C8.74612 20.5791 8.69178 20.7854 8.58311 20.888C8.47443 20.9907 8.30742 20.9774 8.08209 20.8482L7.54271 20.5388V18.6193ZM9.49791 19.7408V21.6602L10.5671 22.2735V21.9352L9.8575 21.5282V21.0635L10.5431 21.4567V21.1185L9.8575 20.7252V20.2853L10.5671 20.6922V20.354L9.49791 19.7408ZM12.2562 22.387L12.2754 21.8618L12.2538 21.8494L11.9422 22.6579L11.6305 21.4919L11.6089 21.4796L11.6281 22.0268V22.882L11.3165 22.7033V20.7838L11.7408 21.0272L11.9469 21.7917L11.9661 21.8027L12.1723 21.2747L12.5678 21.5016V23.421L12.2562 23.2423V22.387ZM13.6792 23.3792V24.0585L14.0388 24.2647V23.5855L14.5686 22.6491L14.1826 22.4278L14.0052 22.7715L13.8758 23.074L13.8566 23.063L13.7272 22.612L13.5498 22.0648L13.1494 21.8351L13.6792 23.3792Z" fill="#153D1C"/>
<path fill-rule="evenodd" clip-rule="evenodd" d="M14.2079 1.26647C15.6739 0.426382 17.6088 0 19.5557 0C21.5026 0 23.4375 0.426388 24.9035 1.26649L24.686 1.64113L24.908 1.26908L36.7332 8.23332L36.5061 8.61385L24.681 1.64968C23.2985 0.85746 21.4452 0.442374 19.5557 0.442374C17.6667 0.442374 15.8139 0.857231 14.4315 1.64903L2.59617 8.61773C1.21011 9.41267 0.66795 10.3619 0.66795 11.1753C0.66795 11.9886 1.21009 12.9379 2.59615 13.7328L14.427 20.5181C15.8097 21.3111 17.664 21.7266 19.5545 21.7266C21.4449 21.7266 23.2992 21.3111 24.6819 20.5181L36.5128 13.7328C37.8988 12.9379 38.441 11.9886 38.441 11.1753C38.441 10.3619 37.8988 9.41263 36.5128 8.6177L36.7354 8.23458C38.2034 9.07649 38.8863 10.1488 38.8863 11.1753C38.8863 12.2017 38.2034 13.274 36.7354 14.1159L24.9046 20.9012C23.4383 21.7422 21.5024 22.169 19.5545 22.169C17.6066 22.169 15.6707 21.7422 14.2044 20.9012L2.37351 14.1159C0.905556 13.274 0.222656 12.2017 0.222656 11.1753C0.222656 10.1491 0.905245 9.07703 2.37246 8.23522L14.2079 1.26647Z" fill="#153D1C"/>
<path d="M12.9924 9.59987C11.0304 8.47463 11.012 6.66079 12.9514 5.54854C14.8907 4.43629 18.0533 4.44682 20.0153 5.57206L29.8965 11.2391L21.3493 16.1412L24.5139 17.9561L22.9434 18.8568L18.1138 16.0869L26.6433 11.195L25.0848 10.3011L19.6499 13.4182L18.0968 12.5274L23.5317 9.4104L18.4272 6.48287C17.3526 5.86653 15.6203 5.86076 14.558 6.46999C13.4958 7.07921 13.5058 8.07272 14.5805 8.68906L14.6094 8.70555C15.6979 9.32984 17.4526 9.33569 18.5286 8.7186L20.0909 9.61463C18.1621 10.7209 14.9725 10.7356 13.0212 9.61645L12.9924 9.59987Z" fill="#153D1C"/>
<path d="M7.96267 8.41406L6.3457 9.34143L16.4711 15.1486L18.088 14.2212L7.96267 8.41406Z" fill="#153D1C"/>
</svg>
