<svg width="99" height="19" viewBox="0 0 99 19" fill="none" xmlns="http://www.w3.org/2000/svg">
<path fill-rule="evenodd" clip-rule="evenodd" d="M8.51781 0.000474951C8.49688 -0.000309518 8.47592 -0.000122119 8.455 0.00103643L8.51781 0.000474951ZM8.455 0.00103643L8.45474 0.00105036L8.455 0.00103643ZM8.45474 0.00105036L8.45298 0.00115024L8.45027 0.00130842L8.06771 0.0224863L8.06851 0.0369345C8.0103 0.0437489 7.9466 0.05176 7.87817 0.0611471C7.53994 0.107546 7.07728 0.188775 6.58916 0.328862C6.10512 0.467775 5.56864 0.672232 5.0992 0.977357C4.62962 1.28258 4.18482 1.71696 3.96736 2.3266C3.25076 4.33561 2.26512 7.29722 1.45781 9.99299C1.05427 11.3405 0.693269 12.6283 0.432494 13.7008C0.178086 14.747 0 15.6613 0 16.2212C0 17.0476 0.409048 17.672 0.982891 18.0624C1.53454 18.4377 2.22746 18.5954 2.879 18.5885C3.53108 18.5816 4.21834 18.4092 4.76347 18.0345C5.32636 17.6476 5.74367 17.0335 5.74367 16.2212V14.1157C5.74367 13.8762 5.84983 13.7316 5.96071 13.6671L7.31311 12.8794L7.31422 12.8787C7.76217 12.6176 8.01878 12.1329 8.01878 11.6303V10.9794C8.01878 10.8269 7.96761 10.6788 7.87351 10.5588L7.84155 10.5181C7.82349 10.4939 7.55409 10.1261 7.45098 9.64676L7.43717 9.58258C7.41016 9.45705 7.34848 9.34269 7.26041 9.25187V8.91252C7.35799 8.79199 7.41208 8.64083 7.41208 8.48391V7.47521C7.41208 7.45911 7.41151 7.44302 7.41037 7.42697C7.41027 7.42555 7.41016 7.42407 7.41006 7.42277C7.40992 7.42095 7.4098 7.41947 7.40975 7.41892L7.40973 7.41857C7.40856 7.40405 7.40399 7.34739 7.41551 7.27516C7.42706 7.20278 7.45194 7.13275 7.49649 7.07676C7.49872 7.075 7.51477 7.06095 7.55462 7.03963C7.60572 7.01228 7.68255 6.98021 7.78891 6.95025C7.99463 6.89231 8.24836 6.85979 8.49245 6.85979C9.03821 6.85979 9.26258 6.90075 9.36278 6.93614C9.3977 6.94847 9.40979 6.95714 9.4198 6.96531C9.43719 6.9795 9.46218 7.00479 9.5177 7.07186L9.51786 7.07206C9.56398 7.12777 9.59062 7.20221 9.6028 7.27904C9.60861 7.31568 9.61028 7.34765 9.61048 7.36989C9.61057 7.38082 9.61031 7.38889 9.6101 7.3934C9.61 7.39547 9.60992 7.39678 9.60989 7.39724L9.60987 7.39744L9.60971 7.39927L9.60958 7.40096C9.60822 7.4183 9.60754 7.43569 9.60751 7.45306L9.60615 8.483C9.60594 8.64022 9.66003 8.79174 9.75782 8.91252V9.19261C9.63399 9.27893 9.54071 9.40537 9.49584 9.55363L9.47144 9.63422L9.47127 9.63477C9.38789 9.91174 9.27088 10.1617 9.12612 10.3798L9.12598 10.38L9.12531 10.381C9.08883 10.4362 9.05936 10.4758 9.04113 10.4979L9.00241 10.5451C8.90244 10.6668 8.84778 10.8196 8.84778 10.9773V11.6454C8.84778 12.167 9.12101 12.6643 9.59645 12.9183L10.9652 13.6491C10.9722 13.6623 10.9806 13.6795 10.9903 13.7011C11.0391 13.8102 11.0898 13.9682 11.1357 14.1571C11.2293 14.5424 11.2746 14.9346 11.2746 15.0805V16.2212C11.2746 17.0392 11.679 17.6617 12.2435 18.0552C12.788 18.4346 13.4739 18.6021 14.1221 18.6021C14.7704 18.6021 15.4563 18.4346 16.0008 18.0552C16.5653 17.6617 16.9697 17.0392 16.9697 16.2212C16.9697 15.6765 16.8114 14.7755 16.5802 13.7329C16.3438 12.6666 16.0149 11.3837 15.6427 10.0385C14.8987 7.34929 13.9737 4.38346 13.2499 2.35795C13.0232 1.72347 12.5558 1.27585 12.0609 0.963984C11.5663 0.65234 11.0003 0.447483 10.489 0.310424C9.97331 0.172212 9.48424 0.0953912 9.12662 0.0528867C9.04615 0.0433219 8.97186 0.0354407 8.9049 0.0289631L8.90542 0.0149985L8.52268 0.00066805L8.51818 0.000488992M8.49332 0.777576C8.49282 0.777607 8.49228 0.777641 8.49169 0.777677C8.49414 0.777831 8.49799 0.777993 8.50305 0.778019C8.50121 0.777932 8.49955 0.777854 8.49806 0.777787C8.49637 0.77771 8.4949 0.777645 8.49367 0.777591L8.49332 0.777576ZM6.6143 8.46363L6.61534 8.46262L6.61577 8.46221M8.49865 1.36165C8.52039 1.36285 8.55264 1.36481 8.5941 1.36784C8.68176 1.37423 8.81 1.38534 8.96674 1.40397C9.28214 1.44146 9.70364 1.5083 10.1382 1.62478C10.5771 1.74243 11.0011 1.9033 11.3382 2.11577C11.6748 2.32787 11.8811 2.56272 11.9718 2.81668C12.6819 4.80364 13.597 7.73659 14.3345 10.4021C14.7031 11.7343 15.0254 12.9928 15.255 14.028C15.4898 15.0872 15.6122 15.8478 15.6122 16.2212C15.6122 16.5375 15.4739 16.7651 15.2256 16.9382C14.9567 17.1256 14.5581 17.2415 14.1221 17.2415C13.6862 17.2415 13.2876 17.1256 13.0187 16.9382C12.7704 16.7651 12.6321 16.5375 12.6321 16.2212V14.5663H12.591C12.5606 14.3372 12.5142 14.0799 12.4547 13.8352C12.3988 13.6053 12.3251 13.3594 12.2294 13.1453C12.1815 13.038 12.121 12.9225 12.044 12.8159C11.9707 12.7144 11.855 12.5825 11.6838 12.4912L10.2351 11.7177C10.2294 11.7147 10.2054 11.6962 10.2054 11.6454V11.2085C10.2228 11.1836 10.24 11.1582 10.2569 11.1327C10.4405 10.856 10.5896 10.5542 10.7032 10.2344C10.9641 10.0451 11.1154 9.73883 11.1154 9.41875V8.77091C11.1154 8.58018 11.0622 8.39645 10.9641 8.23805L10.9651 7.48033C10.9666 7.45555 10.9683 7.4192 10.9683 7.37501C10.9683 7.298 10.9635 7.19383 10.9448 7.07352C10.9083 6.83777 10.813 6.50552 10.5625 6.20312C10.4088 6.01745 10.2032 5.79038 9.81393 5.65291C9.48102 5.53535 9.05762 5.49923 8.49245 5.49923C8.14214 5.49923 7.76299 5.54429 7.42159 5.64045C7.10532 5.72954 6.71028 5.89299 6.4512 6.20855C6.20207 6.512 6.10713 6.84288 6.07145 7.08325C6.05334 7.20525 6.0493 7.31134 6.05004 7.39094C6.05047 7.43751 6.05266 7.47712 6.0545 7.50285V8.23748C5.95622 8.39588 5.90283 8.57976 5.90283 8.77091V9.41875C5.90283 9.66973 5.99537 9.91303 6.164 10.0992C6.29911 10.6015 6.5279 10.9965 6.6612 11.1993V11.6303C6.6612 11.6771 6.63749 11.6992 6.63172 11.7026L5.27888 12.4906C4.70449 12.8249 4.38609 13.4463 4.38609 14.1157V16.2212C4.38609 16.5113 4.25443 16.7346 3.99564 16.9125C3.71831 17.1031 3.30901 17.2233 2.86467 17.228C2.41983 17.2327 2.01617 17.1209 1.74534 16.9367C1.49732 16.768 1.35758 16.5433 1.35758 16.2212C1.35758 15.8494 1.49216 15.0893 1.75147 14.0229C2.00435 12.9829 2.35793 11.7203 2.75809 10.3841C3.55819 7.71239 4.53642 4.7731 5.24572 2.78458C5.33036 2.54727 5.52248 2.32388 5.83792 2.11885C6.15371 1.9136 6.55094 1.75507 6.9629 1.63684C7.37074 1.51979 7.76629 1.44973 8.06228 1.40913C8.20935 1.38895 8.3296 1.37635 8.41167 1.36888C8.44909 1.36547 8.47845 1.36314 8.49865 1.36165Z" fill="#153D1C"/>
<path d="M25.1727 6.01811C25.5916 6.01811 25.9591 6.04018 26.2751 6.08434C26.5984 6.12113 26.9071 6.1984 27.201 6.31613C27.495 6.42651 27.7338 6.58105 27.9176 6.77973C28.1086 6.97106 28.2593 7.22493 28.3695 7.54136C28.4798 7.85778 28.5349 8.23308 28.5349 8.66724C28.5349 9.21179 28.454 9.66434 28.2924 10.0249C28.138 10.3855 27.8992 10.6615 27.5758 10.8528C27.2598 11.0367 26.9144 11.1655 26.5396 11.2391C26.1648 11.3053 25.7092 11.3385 25.1727 11.3385H24.0483V13.7999H22.6263V6.01811H25.1727ZM25.2499 10.1022C25.904 10.1022 26.378 10.0102 26.6719 9.82624C26.9659 9.64227 27.1129 9.25594 27.1129 8.66724C27.1129 8.0859 26.9659 7.70693 26.6719 7.53032C26.378 7.34635 25.904 7.25437 25.2499 7.25437H24.0483V10.1022H25.2499Z" fill="#153D1C"/>
<path d="M29.3842 13.7999V9.02046C29.3842 8.74083 29.4577 8.52742 29.6047 8.38025C29.759 8.23308 29.9758 8.16317 30.255 8.17053L33.6613 8.25883V9.4951L30.8062 9.41783V13.7999H29.3842Z" fill="#153D1C"/>
<path d="M34.8542 13.1377C34.2883 12.6225 34.0054 11.9198 34.0054 11.0294C34.0054 10.139 34.2883 9.43622 34.8542 8.92112C35.4201 8.40601 36.1513 8.14845 37.0479 8.14845C37.9371 8.14845 38.6646 8.40601 39.2305 8.92112C39.7964 9.43622 40.0793 10.139 40.0793 11.0294C40.0793 11.9198 39.7964 12.6225 39.2305 13.1377C38.6646 13.6528 37.9371 13.9103 37.0479 13.9103C36.1513 13.9103 35.4201 13.6528 34.8542 13.1377ZM35.8573 9.82624C35.5707 10.1206 35.4274 10.5216 35.4274 11.0294C35.4274 11.5371 35.5707 11.9382 35.8573 12.2325C36.1439 12.5269 36.5408 12.6741 37.0479 12.6741C37.5549 12.6741 37.9518 12.5269 38.2384 12.2325C38.525 11.9382 38.6683 11.5371 38.6683 11.0294C38.6683 10.5216 38.525 10.1206 38.2384 9.82624C37.9518 9.53189 37.5549 9.38471 37.0479 9.38471C36.5408 9.38471 36.1439 9.53189 35.8573 9.82624Z" fill="#153D1C"/>
<path d="M46.9531 8.25883H47.4381V9.4951H47.0302C46.7804 9.4951 46.582 9.54661 46.435 9.64963C46.5967 9.85567 46.6775 10.1353 46.6775 10.4885C46.6775 11.0183 46.4607 11.4672 46.0271 11.8352C45.6009 12.2031 44.9725 12.5342 44.1421 12.8286C44.5977 12.7918 45.0019 12.8028 45.3547 12.8617C45.7074 12.9206 46.0051 13.0604 46.2476 13.2811C46.4901 13.5019 46.6114 13.7999 46.6114 14.1752C46.6114 14.4328 46.5636 14.6572 46.4681 14.8486C46.3799 15.0399 46.2219 15.1981 45.994 15.3232C45.7736 15.4556 45.5237 15.5623 45.2445 15.6433C44.9652 15.7242 44.5941 15.7831 44.1311 15.8199C43.6681 15.8641 43.1941 15.8935 42.7091 15.9082C42.224 15.9229 41.6214 15.9303 40.9012 15.9303V14.694C41.5332 14.694 42.0366 14.6903 42.4114 14.683C42.7936 14.683 43.1647 14.6719 43.5248 14.6499C43.8849 14.6278 44.1568 14.602 44.3405 14.5726C44.5243 14.5432 44.6859 14.4953 44.8256 14.4291C44.9725 14.3702 45.0681 14.3003 45.1122 14.2194C45.1636 14.1384 45.1893 14.0391 45.1893 13.9214C45.1893 13.7668 45.1379 13.6417 45.035 13.5461C44.9321 13.4504 44.7705 13.3915 44.55 13.3695C44.3369 13.3474 44.1274 13.3363 43.9216 13.3363C43.7159 13.3363 43.4403 13.3658 43.0949 13.4246C42.7568 13.4762 42.4849 13.524 42.2792 13.5681C42.0807 13.6049 41.8052 13.6601 41.4524 13.7337L41.265 12.8838C42.6246 12.6704 43.6571 12.468 44.3626 12.2767V11.9124C43.8776 12.067 43.4072 12.1553 42.9516 12.1773C42.496 12.1921 42.0844 12.1442 41.717 12.0338C41.3569 11.9161 41.0666 11.7137 40.8461 11.4268C40.633 11.1324 40.5264 10.7718 40.5264 10.345C40.5264 9.63123 40.8057 9.08669 41.3642 8.71139C41.9301 8.3361 42.654 8.14845 43.5358 8.14845C44.3883 8.14845 45.0791 8.33978 45.6082 8.72243C45.9316 8.41336 46.3799 8.25883 46.9531 8.25883ZM43.613 11.4488C44.708 11.4488 45.2555 11.1067 45.2555 10.4223C45.2555 9.73057 44.708 9.38471 43.613 9.38471C42.5033 9.38471 41.9485 9.73057 41.9485 10.4223C41.9485 11.1067 42.5033 11.4488 43.613 11.4488Z" fill="#153D1C"/>
<path d="M48.0861 13.7999V9.02046C48.0861 8.74083 48.1596 8.52742 48.3066 8.38025C48.4609 8.23308 48.6777 8.16317 48.9569 8.17053L52.3632 8.25883V9.4951L49.5081 9.41783V13.7999H48.0861Z" fill="#153D1C"/>
<path d="M52.7827 12.2767C52.7827 11.7984 52.9407 11.4194 53.2567 11.1398C53.58 10.8601 54.1091 10.6762 54.844 10.5879L56.7621 10.3561C56.7401 9.66434 56.3138 9.31849 55.4834 9.31849C55.0939 9.31849 54.7816 9.40679 54.5464 9.5834C54.3186 9.75265 54.2047 10.0102 54.2047 10.3561H52.8598C52.8598 9.70114 53.1023 9.17131 53.5874 8.76658C54.0724 8.3545 54.7044 8.14845 55.4834 8.14845C56.2844 8.14845 56.9348 8.36921 57.4345 8.81073C57.9343 9.2449 58.1841 9.87039 58.1841 10.6872V12.5637H58.9888V13.7999H57.8644C57.6219 13.7999 57.4345 13.7337 57.3022 13.6013C57.1773 13.4688 57.1149 13.2848 57.1149 13.0493V12.8617L57.3353 12.2325H56.9605C56.696 13.3511 55.9537 13.9103 54.7338 13.9103C54.337 13.9103 53.9989 13.8551 53.7196 13.7447C53.4477 13.6344 53.2493 13.4872 53.1244 13.3032C52.9994 13.1193 52.9113 12.9463 52.8598 12.7844C52.8084 12.6152 52.7827 12.4459 52.7827 12.2767ZM54.2047 12.0338C54.2047 12.2473 54.2745 12.4091 54.4141 12.5195C54.5611 12.6225 54.7522 12.6741 54.9873 12.6741C55.5238 12.6741 55.9537 12.5416 56.2771 12.2767C56.6004 12.0044 56.7621 11.6512 56.7621 11.217L55.0976 11.4268C54.7816 11.4635 54.5537 11.5261 54.4141 11.6144C54.2745 11.6953 54.2047 11.8352 54.2047 12.0338Z" fill="#153D1C"/>
<path d="M66.8619 8.14845C67.4792 8.14845 67.9311 8.38025 68.2177 8.84385C68.5043 9.30745 68.6477 9.91822 68.6477 10.6762V13.7999H67.2256V10.8307C67.2256 10.2862 67.1595 9.91086 67.0272 9.70482C66.8949 9.49142 66.6451 9.38471 66.2776 9.38471C65.3443 9.38471 64.8777 10.1427 64.8777 11.6586V13.7999H63.4556V10.8307C63.4556 10.2862 63.3895 9.91086 63.2572 9.70482C63.1249 9.49142 62.8751 9.38471 62.5076 9.38471C61.5743 9.38471 61.1077 10.1427 61.1077 11.6586V13.7999H59.6856V8.25883H61.1077V8.97631L60.8541 9.8152H61.2179C61.4678 8.70403 62.0924 8.14845 63.0919 8.14845C64.0105 8.14845 64.558 8.70403 64.7344 9.8152H64.9989C65.2488 8.70403 65.8698 8.14845 66.8619 8.14845Z" fill="#153D1C"/>
<path d="M69.4956 12.2767C69.4956 11.7984 69.6536 11.4194 69.9696 11.1398C70.293 10.8601 70.8221 10.6762 71.557 10.5879L73.4751 10.3561C73.453 9.66434 73.0268 9.31849 72.1963 9.31849C71.8068 9.31849 71.4945 9.40679 71.2593 9.5834C71.0315 9.75265 70.9176 10.0102 70.9176 10.3561H69.5728C69.5728 9.70114 69.8153 9.17131 70.3003 8.76658C70.7853 8.3545 71.4173 8.14845 72.1963 8.14845C72.9974 8.14845 73.6477 8.36921 74.1475 8.81073C74.6472 9.2449 74.8971 9.87039 74.8971 10.6872V12.5637H75.7018V13.7999H74.5774C74.3349 13.7999 74.1475 13.7337 74.0152 13.6013C73.8903 13.4688 73.8278 13.2848 73.8278 13.0493V12.8617L74.0483 12.2325H73.6735C73.4089 13.3511 72.6667 13.9103 71.4467 13.9103C71.0499 13.9103 70.7118 13.8551 70.4326 13.7447C70.1607 13.6344 69.9623 13.4872 69.8373 13.3032C69.7124 13.1193 69.6242 12.9463 69.5728 12.7844C69.5213 12.6152 69.4956 12.4459 69.4956 12.2767ZM70.9176 12.0338C70.9176 12.2473 70.9874 12.4091 71.1271 12.5195C71.274 12.6225 71.4651 12.6741 71.7003 12.6741C72.2367 12.6741 72.6667 12.5416 72.99 12.2767C73.3134 12.0044 73.4751 11.6512 73.4751 11.217L71.8105 11.4268C71.4945 11.4635 71.2667 11.5261 71.1271 11.6144C70.9874 11.6953 70.9176 11.8352 70.9176 12.0338Z" fill="#153D1C"/>
<path d="M76.0382 11.0294C76.0382 10.1611 76.3064 9.46566 76.8429 8.94319C77.3793 8.41337 78.0922 8.14845 78.9814 8.14845C79.7163 8.14845 80.3557 8.35082 80.8995 8.75555C81.4507 9.15292 81.752 9.72689 81.8034 10.4775H80.3814C80.3299 10.1243 80.1793 9.85567 79.9294 9.6717C79.6796 9.48038 79.3636 9.38471 78.9814 9.38471C78.489 9.38471 78.1106 9.53557 77.846 9.83727C77.5888 10.1316 77.4602 10.529 77.4602 11.0294C77.4602 11.5298 77.5888 11.9308 77.846 12.2325C78.1106 12.5269 78.489 12.6741 78.9814 12.6741C79.3636 12.6741 79.6796 12.5821 79.9294 12.3981C80.1793 12.2068 80.3299 11.9345 80.3814 11.5813H81.8034C81.752 12.3319 81.4507 12.9095 80.8995 13.3143C80.3557 13.7116 79.7163 13.9103 78.9814 13.9103C78.0922 13.9103 77.3793 13.6491 76.8429 13.1266C76.3064 12.6041 76.0382 11.9051 76.0382 11.0294Z" fill="#153D1C"/>
<path d="M84.7247 12.6741L86.7199 12.5637V13.7999L84.1625 13.9103C83.8832 13.9177 83.6701 13.8478 83.5231 13.7006C83.3762 13.5534 83.3027 13.3363 83.3027 13.0493V9.4951H82.0239V8.25883H83.3027V7.06672L84.7247 6.6252V8.25883H86.4995V9.4951H84.7247V12.6741Z" fill="#153D1C"/>
<path d="M88.0128 13.1377C87.447 12.6225 87.164 11.9198 87.164 11.0294C87.164 10.139 87.447 9.43622 88.0128 8.92112C88.5787 8.40601 89.3099 8.14845 90.2065 8.14845C91.0957 8.14845 91.8233 8.40601 92.3891 8.92112C92.955 9.43622 93.2379 10.139 93.2379 11.0294C93.2379 11.9198 92.955 12.6225 92.3891 13.1377C91.8233 13.6528 91.0957 13.9103 90.2065 13.9103C89.3099 13.9103 88.5787 13.6528 88.0128 13.1377ZM89.016 9.82624C88.7294 10.1206 88.5861 10.5216 88.5861 11.0294C88.5861 11.5371 88.7294 11.9382 89.016 12.2325C89.3026 12.5269 89.6994 12.6741 90.2065 12.6741C90.7136 12.6741 91.1104 12.5269 91.397 12.2325C91.6836 11.9382 91.827 11.5371 91.827 11.0294C91.827 10.5216 91.6836 10.1206 91.397 9.82624C91.1104 9.53189 90.7136 9.38471 90.2065 9.38471C89.6994 9.38471 89.3026 9.53189 89.016 9.82624Z" fill="#153D1C"/>
<path d="M94.0886 13.7999V9.02046C94.0886 8.74083 94.162 8.52742 94.309 8.38025C94.4634 8.23308 94.6801 8.16317 94.9594 8.17053L98.3656 8.25883V9.4951L95.5106 9.41783V13.7999H94.0886Z" fill="#153D1C"/>
</svg>
