<svg width="12" height="12" viewBox="0 0 12 12" fill="none" xmlns="http://www.w3.org/2000/svg">
<path d="M1.4502 10.1502H10.1502M9.18351 10.1502V8.21691M9.18351 8.21691C9.43989 8.21691 9.68576 8.11507 9.86705 7.93378C10.0483 7.7525 10.1502 7.50662 10.1502 7.25025V6.28358C10.1502 6.02721 10.0483 5.78133 9.86705 5.60005C9.68576 5.41876 9.43989 5.31692 9.18351 5.31692C8.92714 5.31692 8.68126 5.41876 8.49998 5.60005C8.31869 5.78133 8.21685 6.02721 8.21685 6.28358V7.25025C8.21685 7.50662 8.31869 7.7525 8.49998 7.93378C8.68126 8.11507 8.92714 8.21691 9.18351 8.21691ZM6.76685 10.1502V3.38359C6.76685 2.99903 6.61408 2.63022 6.34216 2.35829C6.07023 2.08636 5.70142 1.93359 5.31685 1.93359H3.38352C2.99896 1.93359 2.63015 2.08636 2.35822 2.35829C2.08629 2.63022 1.93353 2.99903 1.93353 3.38359V10.1502M4.35019 8.21691V10.1502M3.86686 6.28358H4.83352M3.86686 4.35026H4.83352" stroke="#153D1C" stroke-opacity="0.4" stroke-width="0.966665" stroke-linecap="round" stroke-linejoin="round"/>
</svg>
