<svg width="43" height="55" viewBox="0 0 43 55" fill="none" xmlns="http://www.w3.org/2000/svg">
<circle cx="21.4735" cy="7.20784" r="6.44905" fill="#153D1C"/>
<path d="M35.4182 23.0629C35.501 22.9003 35.5836 22.7371 35.6659 22.5732L35.2431 23.53L21.4896 54.6486L7.51758 22.5732L7.76462 23.0629C13.9695 35.1919 21.4905 44.1768 21.4905 44.1768C21.4905 44.1768 29.1759 35.321 35.4182 23.0629Z" fill="#153D1C"/>
<path d="M35.6659 22.8176C29.3811 35.3288 21.4905 44.4211 21.4905 44.4211C21.4905 44.4211 2.61765 21.875 0 0L8.56543 0C8.55263 0.235899 8.54615 0.473479 8.54615 0.712573C8.54615 14.5294 21.4905 29.9931 21.4905 29.9931C21.4905 29.9931 34.4348 15.0774 34.4348 0.712573C34.4348 0.473479 34.4283 0.235899 34.4155 0L43 0C42.4407 4.96185 41.0875 9.88924 39.3166 14.5575L35.6659 22.8176Z" fill="#31920B"/>
</svg>
