<svg width="9" height="24" viewBox="0 0 9 24" fill="none" xmlns="http://www.w3.org/2000/svg">
<path d="M-3 22C2.5228 22 7 17.5228 7 12C7 6.47715 2.5228 2 -3 2C-8.52285 2 -13 6.47715 -13 12C-13 13.3789 -12.7209 14.6926 -12.2162 15.8877C-11.9372 16.5481 -11.7977 16.8784 -11.7805 17.128C-11.7632 17.3776 -11.8367 17.6521 -11.9836 18.2012L-13 22L-9.20123 20.9836C-8.65212 20.8367 -8.37756 20.7632 -8.12798 20.7805C-7.87839 20.7977 -7.54815 20.9372 -6.88765 21.2162C-5.69255 21.7209 -4.3789 22 -3 22Z" stroke="white" stroke-width="1.5" stroke-linejoin="round"/>
<path d="M-2.1176 12C-0.9481 12 0 13.0074 0 14.25C0 15.4926 -0.9481 16.5 -2.1176 16.5H-4.5882C-5.25375 16.5 -5.5865 16.5 -5.79325 16.2972C-6 16.0945 -6 15.7681 -6 15.1154V12M-2.1176 12C-0.9481 12 0 10.9926 0 9.75C0 8.50736 -0.9481 7.5 -2.1176 7.5H-4.5882C-5.25375 7.5 -5.5865 7.5 -5.79325 7.70277C-6 7.90554 -6 8.2319 -6 8.88462V12M-2.1176 12H-6" stroke="white" stroke-width="1.5" stroke-linecap="round" stroke-linejoin="round"/>
</svg>
